<svg xmlns="http://www.w3.org/2000/svg" viewBox="0 0 600 400" role="img" aria-labelledby="title desc">
  <title id="title">Certification versus accreditation illustration</title>
  <desc id="desc">Two columns comparing certification and accreditation requirements.</desc>
  <defs>
    <linearGradient id="bg2" x1="0%" x2="100%" y1="0%" y2="100%">
      <stop offset="0%" stop-color="#1ca8d7" />
      <stop offset="100%" stop-color="#0b5670" />
    </linearGradient>
  </defs>
  <rect width="600" height="400" rx="24" fill="url(#bg2)" />
  <rect x="70" y="70" width="200" height="260" rx="18" fill="#ffffff" opacity="0.92" />
  <rect x="330" y="70" width="200" height="260" rx="18" fill="#ffffff" opacity="0.92" />
  <text x="170" y="120" text-anchor="middle" font-family="'Segoe UI', sans-serif" font-size="28" fill="#1ca8d7" font-weight="700">Certifikace</text>
  <text x="430" y="120" text-anchor="middle" font-family="'Segoe UI', sans-serif" font-size="28" fill="#1ca8d7" font-weight="700">Akreditace</text>
  <g stroke="#1ca8d7" stroke-width="8" stroke-linecap="round">
    <line x1="110" y1="160" x2="230" y2="160" />
    <line x1="110" y1="200" x2="230" y2="200" />
    <line x1="110" y1="240" x2="230" y2="240" />
    <line x1="370" y1="160" x2="490" y2="160" />
    <line x1="370" y1="200" x2="490" y2="200" />
    <line x1="370" y1="240" x2="490" y2="240" />
  </g>
  <g fill="#1ca8d7">
    <circle cx="110" cy="160" r="12" />
    <circle cx="110" cy="200" r="12" />
    <circle cx="110" cy="240" r="12" />
    <rect x="360" y="150" width="24" height="24" rx="4" />
    <rect x="360" y="190" width="24" height="24" rx="4" />
    <rect x="360" y="230" width="24" height="24" rx="4" />
  </g>
</svg>
